<svg xmlns="http://www.w3.org/2000/svg" viewBox="0 0 64 64" role="img" aria-label="Sunny Day icon">
  <defs>
    <linearGradient id="sunGradient" x1="0" y1="0" x2="1" y2="1">
      <stop offset="0%" stop-color="#fde68a"/>
      <stop offset="100%" stop-color="#f97316"/>
    </linearGradient>
  </defs>

  <rect width="64" height="64" rx="14" fill="#fff7ed"/>

  <g stroke="#f59e0b" stroke-width="3" stroke-linecap="round">
    <line x1="32" y1="6" x2="32" y2="14"/>
    <line x1="32" y1="50" x2="32" y2="58"/>
    <line x1="6" y1="32" x2="14" y2="32"/>
    <line x1="50" y1="32" x2="58" y2="32"/>
    <line x1="12.8" y1="12.8" x2="18.4" y2="18.4"/>
    <line x1="45.6" y1="45.6" x2="51.2" y2="51.2"/>
    <line x1="12.8" y1="51.2" x2="18.4" y2="45.6"/>
    <line x1="45.6" y1="18.4" x2="51.2" y2="12.8"/>
  </g>

  <circle cx="32" cy="32" r="14" fill="url(#sunGradient)"/>
  <circle cx="27" cy="28" r="2" fill="#7c2d12"/>
  <circle cx="37" cy="28" r="2" fill="#7c2d12"/>
  <path d="M24 36c2.3 3 5.7 4.5 8 4.5s5.7-1.5 8-4.5" fill="none" stroke="#7c2d12" stroke-width="2.5" stroke-linecap="round"/>
</svg>
